{"title":"Crouching Tiger Hidden Dragon 2000 BRRip 720p x264 AAC PRiSTiNE ","uid":8786669,"size":793424394,"categoryP":"video","categoryS":"hd___movies","magnet":"?xt=urn:btih:f8ad94d2089f98f561716bb4974b7fdef09e7f33&amp;dn=Crouching+Tiger+Hidden+Dragon+2000+BRRip+720p+x264+AAC+PRiSTiNE+&amp;tr=udp%3A%2F%2Ftracker.openbittorrent.com%3A80&amp;tr=udp%3A%2F%2Fopen.demonii.com%3A1337&amp;tr=udp%3A%2F%2Ftracker.coppersurfer.tk%3A6969&amp;tr=udp%3A%2F%2Fexodus.desync.com%3A6969","seeders":1,"leechers":0,"uploader":"Vitamin_X","files":-1,"time":1375842686,"description":"_______ Visit us at our Semi Public Bittorrent Community ________\n  &lt;a href=&quot;\nhttp://p2pdl.com&quot; rel=&quot;nofollow&quot; target=&quot;_NEW&quot;&gt;\nhttp://p2pdl.com&lt;/a&gt;  _____________________________ &lt;a href=&quot; http://p2pdl.com&quot; rel=&quot;nofollow&quot; target=&quot;_NEW&quot;&gt; http://p2pdl.com&lt;/a&gt;\n\n\nCrouching Tiger Hidden Dragon 2000 DUBBED BRRip 720p x264 AAC - PRiSTiNE\n\n\nGenre:  Action | Adventure | Drama\nPlot: Two warriors in pursuit of a stolen sword and a notorious \nfugitive are led to an impetuous, physically skilled, adolescent \nnobleman's daughter, who is at a crossroads in her life..\nDirector: Ang Lee\nStars: Yun-Fat Chow, Michelle Yeoh, Ziyi Zhang\nRated: 12+\n\nInfo: &lt;a href=&quot;\nhttp://www.imdb.com/title/tt0190332/&quot; rel=&quot;nofollow&quot; target=&quot;_NEW&quot;&gt;\nhttp://www.imdb.com/title/tt0190332/&lt;/a&gt;\n\n\nGeneral\nFormat                         : MPEG-4\nFile size                      : 751 MiB\nDuration                       : 2h 0mn\nOverall bit rate mode          : Variable\nOverall bit rate               : 873 Kbps\n\nVideo\nFormat                         : AVC\nBit rate                       : 790 Kbps\nWidth                          : 1 280 pixels\nHeight                         : 536 pixels\nDisplay aspect ratio           : 2.40:1\nFrame rate mode                : Constant\nFrame rate                     : 23.976 fps\nBit depth                      : 10 bits\nStream size                    : 679 MiB (90%)\nWriting library                : x264 core 130 r2273 b3065e6\n\nAudio\nFormat                         : AAC\nBit rate                       : 80.8 Kbps\nChannel(s)                     : 2 channels\nChannel positions              : Front: L R\nSampling rate                  : 48.0 KHz / 24.0 KHz\nStream size                    : 69.4 MiB (9%)\nLanguage                       : English\n\nSubtitle                       : Yes (English)\nSource                         : 720p.BluRay.x264-PHOBOS\n &lt;a href=&quot;\nhttp://someimage.com/02kK6vP&quot; rel=&quot;nofollow&quot; target=&quot;_NEW&quot;&gt;\nhttp://someimage.com/02kK6vP&lt;/a&gt; &lt;a href=&quot;\nhttp://someimage.com/wWvVdo7&quot; rel=&quot;nofollow&quot; target=&quot;_NEW&quot;&gt;\nhttp://someimage.com/wWvVdo7&lt;/a&gt; &lt;a href=&quot;\nhttp://someimage.com/t4w6ln5&quot; rel=&quot;nofollow&quot; target=&quot;_NEW&quot;&gt;\nhttp://someimage.com/t4w6ln5&lt;/a&gt; &lt;a href=&quot;\nhttp://someimage.com/Kelyy6o&quot; rel=&quot;nofollow&quot; target=&quot;_NEW&quot;&gt;\nhttp://someimage.com/Kelyy6o&lt;/a&gt; &lt;a href=&quot;\nhttp://someimage.com/fkQ5c1F&quot; rel=&quot;nofollow&quot; target=&quot;_NEW&quot;&gt;\nhttp://someimage.com/fkQ5c1F&lt;/a&gt; &lt;a href=&quot;\nhttp://someimage.com/9nlvaGg&quot; rel=&quot;nofollow&quot; target=&quot;_NEW&quot;&gt;\nhttp://someimage.com/9nlvaGg&lt;/a&gt; &lt;a href=&quot;\nhttp://someimage.com/dVexPBt&quot; rel=&quot;nofollow&quot; target=&quot;_NEW&quot;&gt;\nhttp://someimage.com/dVexPBt&lt;/a&gt;\n\n----------------------------------------------------------------------------------------------------\n\n\nEncoded using revolutionary 10bit encoding, which enables us to provide you more crispier \nand sharper images at small sizes, just make sure you follow our instructions without a fault.\nRecommend to you to use latest version of VLC player. Install K-Lite Codec Pack or shark007 codecs\nin case of any kind of problem in playback (For non-VLC Media Player users). Alternatively, install\nCore AVC codecs, the fastest decoder that there is coupled with Community Center Codec Pack and play\non Windows Media Player Classic. Check sample to be sure.\nEnjoy!\n\nEncoder Notes:Looking For Early Access To Anything You Can Provide DVDScr, R5, DVDR, BluRay, Direct\nAudio, Music Releases and Seedboxes. We require dedicated servers, so as to do more \nand fast releases of movies.\nIf You Got anything to offer please contact us at &quot;&lt;a class=&quot;__cf_email__&quot; href=&quot;/cdn-cgi/l/email-protection&quot; data-cfemail=&quot;1c6c6e7b5c74696f74327f7371&quot;&gt;[email&amp;#160;protected]&lt;/a&gt;&lt;script cf-hash='f9e31' type=&quot;text/javascript&quot;&gt;\n/* &lt;![CDATA[ */!function(){try{var t=&quot;currentScript&quot;in document?document.currentScript:function(){for(var t=document.getElementsByTagName(&quot;script&quot;),e=t.length;e--;)if(t[e].getAttribute(&quot;cf-hash&quot;))return t[e]}();if(t&amp;&amp;t.previousSibling){var e,r,n,i,c=t.previousSibling,a=c.getAttribute(&quot;data-cfemail&quot;);if(a){for(e=&quot;&quot;,r=parseInt(a.substr(0,2),16),n=2;a.length-n;n+=2)i=parseInt(a.substr(n,2),16)^r,e+=String.fromCharCode(i);e=document.createTextNode(e),c.parentNode.replaceChild(e,c)}}}catch(u){}}();/* ]]&gt; */&lt;/script&gt;&quot;.\n\nFace book Fan Page:  \nSearch For P2PDL on FB and do hit like.","torrent":{"xt":"urn:btih:f8ad94d2089f98f561716bb4974b7fdef09e7f33","amp;dn":"Crouching+Tiger+Hidden+Dragon+2000+BRRip+720p+x264+AAC+PRiSTiNE+","amp;tr":["udp%3A%2F%2Ftracker.openbittorrent.com%3A80","udp%3A%2F%2Fopen.demonii.com%3A1337","udp%3A%2F%2Ftracker.coppersurfer.tk%3A6969","udp%3A%2F%2Fexodus.desync.com%3A6969"],"infoHash":"f8ad94d2089f98f561716bb4974b7fdef09e7f33","infoHashBuffer":{"type":"Buffer","data":[248,173,148,210,8,159,152,245,97,113,107,180,151,75,127,222,240,158,127,51]},"announce":[],"urlList":[]}}